<?xml version="1.0" encoding="UTF-8"?>
<svg width="292px" height="292px" viewBox="0 0 292 292" version="1.1" xmlns="http://www.w3.org/2000/svg" xmlns:xlink="http://www.w3.org/1999/xlink">
    <!-- Generator: Sketch 42 (36781) - http://www.bohemiancoding.com/sketch -->
    <title>github</title>
    <desc>Created with Sketch.</desc>
    <defs></defs>
    <g id="Page-1" stroke="none" stroke-width="1" fill="none" fill-rule="evenodd">
        <g id="github" fill-rule="nonzero" fill="#2B414D">
            <g id="Layer_1">
                <path d="M145.66,0 C65.219,0 0,65.219 0,145.66 C0,226.11 65.219,291.32 145.66,291.32 C226.101,291.32 291.32,226.11 291.32,145.66 C291.319,65.219 226.1,0 145.66,0 Z M186.462,256.625 C185.624,245.227 184.687,231.107 184.632,225.39 C184.268,221.002 183.794,209.841 173.198,202.713 C215.266,199.19 235.285,175.939 236.724,145.214 C237.926,127.717 230.97,112.331 218.617,99.914 C219.245,86.632 218.216,70.891 217.361,63.973 C207.875,61.242 185.753,72.922 179.571,77.92 C166.534,72.858 134.626,71.083 115.235,77.92 C101.488,68.252 85.839,62.28 77.309,63.946 C69.434,81.398 74.496,97.894 76.034,99.86 C65.892,109.128 51.745,120.535 55.587,144.432 C61.75,179.472 86.403,198.372 126.095,202.996 C117.629,204.726 116.199,211.044 115.489,213.784 C88.833,224.781 81.214,206.993 77.845,202.359 C66.657,188.512 56.615,192.527 55.996,192.745 C55.395,192.963 54.94,193.837 55.004,194.256 C55.568,197.242 61.659,200.274 61.959,200.519 C70.216,206.673 73.275,217.789 75.159,220.957 C87.003,240.43 114.533,232.355 114.797,232.519 C114.815,234.221 114.606,248.551 114.442,259.703 C64.245,245.992 27.311,200.2 27.311,145.66 C27.311,80.295 80.295,27.312 145.659,27.312 C211.023,27.312 264.008,80.295 264.008,145.66 C264.008,196.668 231.69,239.992 186.462,256.625 Z" id="Shape"></path>
            </g>
        </g>
    </g>
</svg>